<svg xmlns="http://www.w3.org/2000/svg" viewBox="0 0 1536 1536" fill="none">
  <!-- بازسازی برداری لوگوی امضایی طلایی «س» سپید -->
  <g stroke="#d99a2b" stroke-width="52" stroke-linecap="round" fill="none">
    <!-- قلم بلند اصلی با سر دایره -->
    <path d="M1204 396 C1160 640 1090 980 1010 1130 C985 1178 952 1190 940 1148 C925 1090 985 1010 1090 1015" />
    <!-- حلقه کوچک -->
    <path d="M1064 852 C1035 900 1030 950 1062 962 C1094 972 1120 930 1122 890 C1124 852 1102 838 1075 858" />
    <!-- قلم کوتاه سرخمیده -->
    <path d="M985 1122 C905 1210 820 1240 795 1195 C772 1152 850 1105 950 1140" />
    <!-- خط پایین کشیده -->
    <path d="M955 1145 C830 1300 640 1400 565 1340 C505 1290 620 1180 830 1150 C980 1128 1130 1170 1210 1290" />
  </g>
  <circle cx="1211" cy="384" r="34" fill="#d99a2b" />
</svg>
